mastitorrents.com
  
http://mastitorrents.com/forums/index.php
  
http://thepiratebay.se/user/HDvideos/0/7

Murder 3 (2013) Hindi 1CD PDVDRip XviD 5.1 [Team Jaffa]

General
Format : AVI
Format/Info : Audio Video Interleave
File size : 698 MiB
Duration : 1h 53mn
Overall bit rate : 864 Kbps

Video
ID : 0
Format : MPEG-4 Visual
Format profile : Advanced Simple@L5
Format settings, BVOP : 2
Format settings, QPel : No
Format settings, GMC : No warppoints
Format settings, Matrix : Default (H.263)
Codec ID : XVID
Codec ID/Hint : XviD
Duration : 1h 53mn
Bit rate : 728 Kbps
Width : 640 pixels
Height : 288 pixels
Display aspect ratio : 2.222
Frame rate : 25.000 fps
Color space : YUV
Chroma subsampling : 4:2:0
Bit depth : 8 bits
Scan type : Progressive
Compression mode : Lossy
Bits/(Pixel*Frame) : 0.158
Stream size : 588 MiB (84%)
Writing library : XviD 1.2.1 (UTC 2008-12-04)

Audio
ID : 1
Format : AC-3
Format/Info : Audio Coding 3
Mode extension : CM (complete main)
Format settings, Endianness : Big
Codec ID : 2000
Duration : 1h 53mn
Bit rate mode : Constant
Bit rate : 128 Kbps
Channel(s) : 6 channels
Channel positions : Front: L C R, Side: L R, LFE
Sampling rate : 48.0 KHz
Bit depth : 16 bits
Compression mode : Lossy
Stream size : 103 MiB (15%)
Alignment : Aligned on interleaves
Interleave, duration : 64 ms (1.60 video frames)
Interleave, preload duration : 192 ms
Title : audio

Screens: 
http://www.shotpix.com/images/61343961809162684215.png 
http://www.shotpix.com/images/80029491321060046406.png 
http://www.shotpix.com/images/11385799761197799874.png 
http://www.shotpix.com/images/03145436644829041842.png 
http://www.shotpix.com/images/89611956588959773948.png 
http://www.shotpix.com/images/96584576816381433850.png 
http://www.shotpix.com/images/95940549331691562986.png 
http://www.shotpix.com/images/88241787826902978461.png 
http://www.shotpix.com/images/33597227776055738133.png 
http://www.shotpix.com/images/47472998133144765606.png 
http://www.shotpix.com/images/77995470340065629867.png